<svg width="24" height="24" viewBox="0 0 24 24" fill="none" xmlns="http://www.w3.org/2000/svg">
<g clip-path="url(#clip0_197_12)">
<path d="M11.5259 2.29378C11.5698 2.20557 11.6375 2.13133 11.7214 2.07942C11.8053 2.02751 11.9021 2 12.0009 2C12.0997 2 12.1965 2.02751 12.2804 2.07942C12.3643 2.13133 12.432 2.20557 12.4759 2.29378L14.7856 6.9551C14.9378 7.2619 15.1624 7.52734 15.4402 7.72862C15.718 7.9299 16.0407 8.06102 16.3805 8.11072L21.546 8.86386C21.6439 8.87799 21.7359 8.91912 21.8115 8.98261C21.8871 9.04609 21.9434 9.1294 21.974 9.2231C22.0046 9.31681 22.0083 9.41717 21.9846 9.51283C21.9609 9.6085 21.9108 9.69566 21.84 9.76444L18.1043 13.3887C17.858 13.6279 17.6737 13.9232 17.5672 14.2491C17.4608 14.575 17.4355 14.9218 17.4934 15.2596L18.3753 20.3802C18.3926 20.4776 18.382 20.578 18.3448 20.6698C18.3076 20.7615 18.2453 20.841 18.1649 20.8992C18.0845 20.9574 17.9893 20.9919 17.8902 20.9987C17.7911 21.0056 17.6921 20.9846 17.6044 20.9381L12.9868 18.5192C12.6826 18.3601 12.344 18.2769 12.0004 18.2769C11.6567 18.2769 11.3182 18.3601 11.014 18.5192L6.3974 20.9381C6.30974 20.9843 6.21082 21.0051 6.11188 20.9981C6.01294 20.9911 5.91796 20.9566 5.83775 20.8984C5.75753 20.8403 5.6953 20.7609 5.65813 20.6693C5.62095 20.5777 5.61033 20.4775 5.62747 20.3802L6.50839 15.2606C6.56658 14.9226 6.54137 14.5756 6.43494 14.2495C6.3285 13.9234 6.14403 13.6279 5.89745 13.3887L2.16179 9.76544C2.09039 9.69673 2.03979 9.60943 2.01576 9.51347C1.99173 9.41751 1.99524 9.31676 2.02588 9.22269C2.05652 9.12862 2.11306 9.04501 2.18906 8.9814C2.26506 8.91778 2.35747 8.87671 2.45576 8.86286L7.62029 8.11072C7.96052 8.0614 8.28362 7.93046 8.56179 7.72915C8.83996 7.52784 9.06487 7.2622 9.21715 6.9551L11.5259 2.29378Z" fill="#FED100" stroke="#FED100" stroke-width="2" stroke-linecap="round" stroke-linejoin="round"/>
</g>
<g clip-path="url(#clip1_197_12)">
<path d="M11.525 2.29489C11.5688 2.20635 11.6365 2.13183 11.7204 2.07972C11.8044 2.02761 11.9012 2 12 2C12.0988 2 12.1956 2.02761 12.2795 2.07972C12.3634 2.13183 12.4311 2.20635 12.475 2.29489L14.785 6.97389C14.9371 7.28186 15.1618 7.5483 15.4396 7.75035C15.7174 7.95239 16.0401 8.08401 16.38 8.13389L21.546 8.88989C21.6439 8.90408 21.7358 8.94537 21.8115 9.00909C21.8871 9.07282 21.9434 9.15644 21.974 9.2505C22.0046 9.34456 22.0082 9.4453 21.9846 9.54133C21.9609 9.63736 21.9108 9.72485 21.84 9.79389L18.104 13.4319C17.8576 13.672 17.6732 13.9684 17.5668 14.2955C17.4604 14.6227 17.435 14.9708 17.493 15.3099L18.375 20.4499C18.3922 20.5477 18.3817 20.6485 18.3445 20.7406C18.3073 20.8327 18.2449 20.9125 18.1645 20.9709C18.0841 21.0293 17.9889 21.0639 17.8898 21.0708C17.7907 21.0777 17.6917 21.0566 17.604 21.0099L12.986 18.5819C12.6817 18.4221 12.3431 18.3386 11.9995 18.3386C11.6558 18.3386 11.3173 18.4221 11.013 18.5819L6.39597 21.0099C6.3083 21.0563 6.20937 21.0772 6.11042 21.0701C6.01147 21.0631 5.91649 21.0285 5.83626 20.9701C5.75604 20.9118 5.6938 20.8321 5.65662 20.7401C5.61945 20.6482 5.60883 20.5476 5.62597 20.4499L6.50697 15.3109C6.56516 14.9716 6.53995 14.6233 6.43351 14.2959C6.32706 13.9686 6.14258 13.672 5.89597 13.4319L2.15997 9.79489C2.08856 9.72593 2.03796 9.63829 2.01393 9.54197C1.9899 9.44565 1.99341 9.34451 2.02405 9.25008C2.05469 9.15566 2.11124 9.07174 2.18725 9.00788C2.26326 8.94402 2.35567 8.90279 2.45397 8.88889L7.61897 8.13389C7.95923 8.08439 8.28236 7.95295 8.56055 7.75088C8.83875 7.54881 9.06367 7.28216 9.21597 6.97389L11.525 2.29489Z" fill="#D1D5DC" stroke="#D1D5DC" stroke-width="2" stroke-linecap="round" stroke-linejoin="round"/>
</g>
<defs>
<clipPath id="clip0_197_12">
<rect width="12" height="24" fill="white"/>
</clipPath>
<clipPath id="clip1_197_12">
<rect width="12" height="24" fill="white" transform="translate(12)"/>
</clipPath>
</defs>
</svg>
