<svg width="22" height="21" viewBox="0 0 22 21" fill="none" xmlns="http://www.w3.org/2000/svg">
<path d="M10.5259 1.29378C10.5698 1.20557 10.6375 1.13133 10.7214 1.07942C10.8053 1.02751 10.9021 1 11.0009 1C11.0997 1 11.1965 1.02751 11.2804 1.07942C11.3643 1.13133 11.432 1.20557 11.4759 1.29378L13.7856 5.9551C13.9378 6.2619 14.1624 6.52734 14.4402 6.72862C14.718 6.9299 15.0407 7.06102 15.3805 7.11072L20.546 7.86386C20.6439 7.87799 20.7359 7.91912 20.8115 7.98261C20.8871 8.04609 20.9434 8.1294 20.974 8.2231C21.0046 8.31681 21.0083 8.41717 20.9846 8.51283C20.9609 8.6085 20.9108 8.69566 20.84 8.76444L17.1043 12.3887C16.858 12.6279 16.6737 12.9232 16.5672 13.2491C16.4608 13.575 16.4355 13.9218 16.4934 14.2596L17.3753 19.3802C17.3926 19.4776 17.382 19.578 17.3448 19.6698C17.3076 19.7615 17.2453 19.841 17.1649 19.8992C17.0845 19.9574 16.9893 19.9919 16.8902 19.9987C16.7911 20.0056 16.6921 19.9846 16.6044 19.9381L11.9868 17.5192C11.6826 17.3601 11.344 17.2769 11.0004 17.2769C10.6567 17.2769 10.3182 17.3601 10.014 17.5192L5.3974 19.9381C5.30974 19.9843 5.21082 20.0051 5.11188 19.9981C5.01294 19.9911 4.91796 19.9566 4.83775 19.8984C4.75753 19.8403 4.6953 19.7609 4.65813 19.6693C4.62095 19.5777 4.61033 19.4775 4.62747 19.3802L5.50839 14.2606C5.56658 13.9226 5.54137 13.5756 5.43494 13.2495C5.3285 12.9234 5.14403 12.6279 4.89745 12.3887L1.16179 8.76544C1.09039 8.69673 1.03979 8.60943 1.01576 8.51347C0.991732 8.41751 0.995237 8.31676 1.02588 8.22269C1.05652 8.12862 1.11306 8.04501 1.18906 7.9814C1.26506 7.91778 1.35747 7.87671 1.45576 7.86286L6.62029 7.11072C6.96052 7.0614 7.28362 6.93046 7.56179 6.72915C7.83996 6.52784 8.06487 6.2622 8.21715 5.9551L10.5259 1.29378Z" fill="#FED100" stroke="#FED100" stroke-width="2" stroke-linecap="round" stroke-linejoin="round"/>
</svg>
